<svg version="1.1" xmlns="http://www.w3.org/2000/svg" xmlns:xlink="http://www.w3.org/1999/xlink" viewBox="0 0 667 1000">
<title>Mono Lisa</title>

<style type="text/css">
	.base{fill:var(--base);}
  .ink{fill:var(--ink);}

	.ink{fill:var(--ink);}

	.monocleL{display:var(--hasMonocleL);}
	.monocleR{display:var(--hasMonocleR);}
	.mask{display:var(--hasMask);}

	.monopod{display:var(--hasMonopod);}
	.mic{display:var(--hasMic);}
	.m16{display:var(--hasM16);}

	.monohat{display:var(--hasMonohat);}
	.moustache{display:var(--hasMoustache);}
	.moon{display:var(--hasMoon);}
	.monoplane{display:var(--hasMonoplane);}
</style>

<path class="back ink" d="M0,0h667v1000H0V0z"/>

<g class="monoLisa base">
<g id="DV-logo">
    <path id="D" d="M608.1,937.2c28-1.8,28.1,46.7,0,44.9V937.2z"/>
	<path id="V" d="M653.1,937.1c-14.9,59.9-8.9,60.1-23.9,0H653.1z"/>
</g>

<path class="sky" d="M109.7,41.8C-66.6,13.6,696.2-24.7,618.8,65.7c48.8,8.8,41.7,72.7,40.9,134.1
	c-29,19.2-86.4,134.3-123.4-10.1c-11.2,39-22.1,30.6-19.6-11.1c-40.9,84.6-0.2-56.4-60,21.1c-9.4-12.4-21.1-110.5-132.9-103.8
	c-63.5,3.8-76.5,47.7-97.3,66.2c-7.5,8.1-11,17.8-10.1,28.5c-21.3,17.5-5.5,36.2-8.9,55c-3.5,19.4-19.6-10.7-27.5-11.5
	c-14.2-1.4-14.7,23-18.7,11.1c-29.3-101.5-84.2,0.6-108-67.6c-45.3,98.4-19.2-59-46.9,50C6.5,74.4-10.7,57.8,109.7,41.8z"/>

<g class="landscape">
	<path id="plain" d="M109.3,594.2c13.2,55.8-75.3,37.6-98.8,36.9c-10.6-0.3-3.7-37.2,4.7-40.7
		C16.2,590,106.8,583.7,109.3,594.2z"/>
	<path id="valley" d="M20,547c-55.7-45.5,154.9-31.3,52.6-77.3c236.7,30.3-115.3,47.2,40,86.8
		C139.2,563.3,47.4,569.3,20,547z"/>
	<path id="river-R" d="M659.4,533.9c-36.7-28.9-72.8-54.2-116-65.9c-1.7-1,24.8-4.3,23-5
		c-163.3-60.3,116.6-40.8-81.3-68.3c-0.1-18.3,234-30.8,97.5,36.9C665,454.5,660.3,466.8,659.4,533.9z"/>
	<path id="river-L" d="M138.3,332.8c107.3-58.3,77.4,99,64.2,79.6c-2.9-4.2-8.8-12.1-13.8-11
		c-56.1,12.3-60.5-25.3-108.2,8.3c-23.9,16.9-92.9,18.3-32.6-6.1C98.6,383.2,196.5,351.2,138.3,332.8z"/>
	<path id="upper-lake" d="M493.3,272c-9.3,0-13.4,3.1-17.5,3.1c-4.2,0-5.7-3.6-18.9-10.3c17.4,6.4,199.9,4.3,204.4,4.4
		c-27.4,19.1-52.7,6.6-75.6,6.6c-17.9,0-38.3,2.2-51.7,2.2C516.1,278.1,506.3,272,493.3,272z"/>
</g>

<path class="crown" d="M249.8,161.7c6.5-19.9,19-9.4,37.5-18.4c7.5-3.7,9.5-17.7,11.6-17.7c0,28,37.6,19.4,50.5,30.1
	C368.3,171.4,326.4,140.6,249.8,161.7z"/>
<path class="face" d="M381.6,229.7c-1.3,0-26.6,12-32.4,14.9c-0.4,0.2-9.7-3.7-10-3.9c-2-1.1-9.2,11.8-15.2-4.1
	c-1.1-2.8-8.2,3.4-9.2,4.3c-7.2,5.9,30.4,5.6,23.4,9.2c-20.4,10.6-28.8-10.1-33.7-10.1c-6.5,0-2.8,12.9-6.3,11.9
	c-6-1.7-0.6-27.2,5.2-30.6c9.5-5.6,49.2,3.9,60.4,3.9c6.5,0,8.6-5.3,16.6-6.5c5.2-0.8-18.7-55-24.5-56.6
	c-54.9-14.7-105.8-1-106.6,1.8c-20.5,100-14.7,57.8,13.7,57.8c22.7,0,19.7,23.5,15.5,20c-4.1-3.5,1.9,9.6-11.2,9.6
	c-5.7,0-3.5-2.6-2.9-2.8c20.9-6.4,4.7-11.4,4.3-8.6c-0.4,3.1-4.2,3.7-7.1,3.7c-6.2,0-1.8-13.7-17.3-3.3c-2.3,1.5-9.1-5.3-8.8-1
	c2.2,27.9,2.7,57.8,18.9,90.8c5.6,11.4,39.3,36.9,51.8,36c25.8-2,55.6-29.7,57.6-31.5C381.9,317.6,390.9,229.7,381.6,229.7z
	 M291.9,300.2c6.6,0.8,12.7-14.6,21.5-4.8c6.8,7.5-25.9,17.2-31.4-0.8c-0.4-1.3,1.3-2.3,2.2-1.2
	C286.6,296.3,289.7,299.9,291.9,300.2z M292.1,333.5c0.6-0.6,14-2.4,18-2.8c0.6-0.1,1.2,0.3,1.4,0.9
	C314,340.2,291.4,334.2,292.1,333.5z M282,321.4c12.1-1.1,40.7-8.4,49.5-3.2c1,0.6,0.7,2.2-0.5,2.3c-12.7,2-35.6,8.8-49.3,3.4
	C280.4,323.4,280.7,321.6,282,321.4z"/>
<g class="brows">
	<path id="browR" d="M349.5,233.9c0,3.2-4-3.4-12.9-3.4c-17.6,0-30.7,10.9-22,2.4C321.2,226.4,349.5,223.7,349.5,233.9z"/>
	<path id="browL" d="M245.5,232.9c13.2-10.6,32.9-5,31.6,4c-1-0.2-8.5-6.1-14.1-6.7C255.7,229.5,251.4,236.4,245.5,232.9z"/>
</g>

<path class="neck" d="M291.8,538.4c-177.4-35.6,1.7-100.7,6.8-157.5c34.7,45.7,64.3-22.4,85.4-6.5
	c52,36.7-14.1,121.5,21.7,126.2c18.7,2.4,63.2-21,57.5-14.4c-14.1,16.2,86.7-15-16.3,21.9C338.9,546.8,336.3,547.4,291.8,538.4z"/>

<g class="highlights">
	<path id="speck-bottom" d="M481.6,599c1.4-8,24.5-8.5,24.5-8.5S489.6,600.5,481.6,599z"/>
	<path id="speck-top" d="M470.3,576.9c0,0,12.8-16.1,36.2-17.4C530.1,558.2,470.3,576.9,470.3,576.9z"/>
</g>

<g class="armL">
	<path id="far" d="M428.9,803.1c-38.3-21-96.3-22.1-42.8,5.9c58.3,30.5,74.2,34.5,17.3-0.5
		C354.7,778.6,502.5,843.5,428.9,803.1z"/>
	<path id="near" d="M478.6,818.2c-65.2-54.8,69.3-8.2,2.3-30.9C352.5,743.8,552.7,880.5,478.6,818.2z"/>
</g>

<path class="armR" d="M149.8,752c0-5.8-44.3,45.9-50,45.9c-5.7,0,26-41.3,26-46.9c0-7.5-34.2,22.7-27.1,11.1
	c1.9-3.1,7.5-10,7.5-17.2c0-12.7-29.3,44-29.3,26.9c0-14.5,24.4-70.2,51.1-55.8c-69.9,33.5,66.5,8.3,35.5,41
	c-8.5,9-22.8,32.6-22.8,25C140.7,776.8,149.8,752.6,149.8,752z"/>

<path class="hands" d="M198.6,880.8c-12.8,12.2-11.3,26.8-14.4,28.1c-3.6,1.5-28.4-14.1,13.2-58.9
	c-31,22.6-21.7,40-26.3,40.8c-4.4,0.8-14.9-27.5,12.4-53.7c-53.4,61.1-14.8-22.9,17.5-30.2c-46.9-15.5-28.1-79.3,19.8-79.3
	c44.6,0,105.4,47,137.9,55.5c8.3,2.2-9.1,5.9-18.9,5.2c64.6,46.1,67.2,70-14.1,26.5c66.4,59.5,61.9,73.8-9.9,26.1
	c50.6,47.8,48.9,60.4-22.3,16.5c17.7,17.1,19.6,29.1-32.5,0c15.9,26.3-62.7,2.5-54.6,77.5C207.3,943.8,177.1,922.5,198.6,880.8z"/>
</g>

<g class="monocleL ink">
	<path id="frameL" d="M259.4,277.9c-36.6,0-34.6-53.5,0-53.5C294.3,224.4,296,277.9,259.4,277.9z M259.4,228.4
		c-29.7,0-31.1,45.4,0,45.4C290.8,273.9,288.7,228.4,259.4,228.4z"/>
</g>

<g class="monocleR ink">
	<path id="laceR" d="M357.8,248.1c19.6,13.9-2.9,63.6,0.6,81.1c1.1,5.3,0.5,9.1-1-0.2c-3.9-21.6,16.1-75.9,1.1-74.6
		C357.3,254.5,358.2,248.2,357.8,248.1z"/>
	<path id="frameR" d="M332.1,278c-36.6,0-34.9-53.5,0-53.5C366.7,224.5,368.6,278,332.1,278z M332.1,228.5c-29.3,0-31.4,45.5,0,45.4C363.2,273.9,361.8,228.5,332.1,228.5z"/>
</g>

<path class="mask ink" d="M254.6,204.9c21.1,0,37.3,8.4,47,8.4c5.9,0,21.2-8.2,50-8.2c69.6,0,26,69.6-7.8,69.6c-22.1,0-32.2-20.7-42.7-20.7
		c-7.2,0-21,22.6-39.7,22.6C230.2,276.7,197.5,204.9,254.6,204.9z M236.4,232c10.6,21.4,34.9,20.2,55.7,9.2
		C281.5,220,257.9,221.6,236.4,232z M371.7,230.3c-20.2-10.3-50.7-10.9-61.4,10.9C330.4,251.5,361,252.1,371.7,230.3z"/>

<path class="monopod base" d="M558.2,550.6c0-7.2-0.9-6.2-40.8-42c-4.9-4.4-12.5-4-16.9,0.9c-77.6,86.1-80,87.4-80,91.8
	c0,12.8,18.4,19,18.4,24.6c0,6.5-12.2-12.7-12.2-5.1c0,3.1,1.6,9.4,5,13.8c-84.1,93.5-93.5,106.1-97.2,106.1
	c-3.3,0-4.7-9.1-23.3,13.6l25.1,13.7c6.5-7.6,8.3-12,8.3-14.7c0-13.6-25.3,18.2,92.9-113.2c6,3.7,15.9,4.6,15.9,2.4
	c0-2.9-13.7-10.3-7.7-10.3c6.7,0,19.9,25.8,32.6,11.6C560.6,552.5,558.2,557.2,558.2,550.6z M513.9,516.2c0,4.9-8,5.4-8-0.1
	C505.9,511,513.9,510.8,513.9,516.2z"/>

<g class="mic base">
		<path id="bottom" d="M305.1,752.1l36.1,18.8c15.8-22,17.3,5.7,44.4-21c-15.5-17.7-31-34-46.4-51.5
			C302.4,730.6,340.7,724.2,305.1,752.1z"/>
		<path id="top" d="M347.9,691.2c15.1,17.3,30.3,34.6,45.5,52.1C430,717,375.1,658.5,347.9,691.2z"/>
</g>

<path class="m16 base" d="M512.6,908c-12.4-14.1,47.2-36.7,42.2-53.7c-4.7-15.8-71.3,0.6-84.2-14.4
	C343.7,690.7,350.3,695,339.9,697c-34.2,6.7,41.1-38.2,20.7-70.4c-45.9-73.5-47-81.8-69.8-79.6c-60.3,5.7-61.4,8.2-68.1,0
	c-111.9-138.3-81.1-139.3-197.3-41.2c-84.8,70.6,182.6,86,150.8,115.2c-61.3,55.4-122.3,18.2-81.5,69.9c9.9,12.4,19.8,4.9,67.4-8.3
	c1-0.3,95.6,58.7,112.6,47.4c15.7-10.4,10.2,9.9,17.7,14.9c7.5,5,55.6,31.1,69.4,34.7c12.8,3.4-11,10.8-0.7,19
	c59.8,47.9,10.8,40.7,23.6,56.3c24,29.3,29,38.8,59.2,26.7c7.2-2.9,1.2-5.5,100.5,107.3c6,6.8,28.6-12.1,22.5-19
	C548.6,949,530.7,928.6,512.6,908z M196.6,667.3c7.1-7.1,33.2,23.5,24.3,32.4C213.2,707.5,185.4,678.5,196.6,667.3z M260.8,574.5
	c35.7-5.6,23.9-7.5,83,62.3c9.4,11-15.8,35.4-24,25.6C261.6,593.2,243.3,577.2,260.8,574.5z M495.7,870c9.7,0,9.9,14.7,0,14.7
	C486.2,884.7,485.9,870,495.7,870z"/>

<g class="monohat">
<path class="monohat-border base" d="M174.7,232.7c-21.2,0-15.8-32.7,3.9-45.5c14.6-9.1,27.5-20.4,41.8-29.8c21.7-14.3,16.9-133.1,163.6-90.6c64.7,18.7,72.7,63.3,72.7,132.9c-4-2.3-28.3-16.5-30.8-16.5c-7.3,0-20.3,46.3-57.9,46.3c-31.9,0-104.3-44.7-125-44.7C223.8,184.9,203.5,232.7,174.7,232.7z"/>
<g class="mHat ink">
	<path id="button-top" d="M334.6,59c-9.3-0.5-10.7-0.1-10.6-1.8c0-0.7,0.6-1.2,1.3-1.2l9.4,0.5C336.4,56.6,336.2,59.1,334.6,59z"/>
	<path id="hat-front" d="M286.3,141.5c52.1,0,118.9,27.7,118.9,25.5c0-69.9-10-105.2-79.6-105.2c-70.7,0-75.3,57.2-96.1,90.4C230.5,151.6,258.2,141.5,286.3,141.5z"/>
	<path id="hat-side" d="M381.1,70.4c28.6,17.9,29.1,64.4,30,99.1c43.6,23.7,41.4,26.1,41.4,22.7c0-41.6-4.5-72.7-22.6-93.9C416.7,82.7,387.3,67.6,381.1,70.4z"/>
	<path id="visor" d="M201.8,176.4c76.3,0,125.7,49.4,167.6,49.4c27.4,0,50-43,50-44.4c0-6-84.2-34.7-132.9-34.7C229.5,146.6,195.8,176.4,201.8,176.4z"/>
	<path id="visor-under" d="M175.1,228.6c17.7,0,25.1-16.2,58-45.8C169.4,169.3,153.1,228.6,175.1,228.6z"/>
</g>
<path class="L base" d="M309.1,118.8c-2.2,3.4,10.3,1.6,15.3,2.3c4.9,0.6,3.9,5,1.6,4.9c-21.7-1.2-28.7-0.4-26.1-3.1c13.5-14.2,17.8-31,23.2-30.3c2,0.2,4.9,3.5,2.6,4.1C317,99.1,322.6,97.6,309.1,118.8z"/>
</g>

<g class="moustache ink">
		<path id="mous" d="M298.6,310.3c-1.1-11.8-34.6,21.4-35.2-22.4c0,0-6.7,36.1,29.1,26.6C295.4,313.8,299,312.9,298.6,310.3z"/>
		<path id="tache" d="M299,310.1c0,2.5,6.3,5.1,13.6,5.1c28.4,0,24.3-30.3,23.3-30.3c0,0,0,25.9-15.3,25.9C315.3,310.8,299,302.9,299,310.1z"/>
</g>

<path class="monoplane ink" d="M152,119c5,2.8,14.3,10.7,20.2,10.7c6.6-0.1,4.7-11.1,11.8-10.5c10.1,0.9,2.7,13.9,6.5,18.1
	c1.9,2.2,41.3-3.7,4,10.6c-15.6,6-34.9,10.6-24.7-2.6c-6.3-3.6-15.2-4.6-22.3-6.4c-36.1-9.4-17.8-8.8-83.6,7.4
	C17.2,158,60,134,70.1,126.8c-14.1-5.5-7.6-18.5,0.6-16.9c7.2,1.4,12,13.2,18.8,6.5C79.4,111.7,49.6,97,55,87.3
	c3.9-7,21.5-0.4,23.4-0.9c4.4-1-1.9-6.3,19.1,2c11.5,4.4,8.1,1,12.9,1.7c12.6,1.9,3.6,13,28,4.9C293.9,43,259.3,60.7,152,119z
	 M110.1,95c-3.1-2.6-7.5,1-5.3,4.7C107.4,104,110.1,97.7,110.1,95z M69.5,113.2c-3.3-0.6-7.8,6.9,0,5
	C69.5,116.1,69.5,114.9,69.5,113.2z"/>

<path class="moon ink" d="M562.9,53.6c-93.2,36.9,8.1,158.9,65.4,69.1C628.3,122.7,542.3,136,562.9,53.6z M536.6,109.2
	c4.2,0-2.1,22.3,42.5,39.5C577.8,151.4,535.2,139.9,536.6,109.2z"/>

<style type="text/css">
:root {
  --base: #fff;
  --ink: #000;

--hasMonocleL: none;
--hasMonocleR: none;
--hasMask: none;

--hasMonopod: none;
--hasMic: none;
--hasM16: none;

--hasMonohat: none;
--hasMoustache: none;
--hasMoon: none;
--hasMonoplane: none;
}
</style>
</svg>
